<svg width="120" height="86" viewBox="0 0 114 82" fill="none" xmlns="http://www.w3.org/2000/svg">
<path d="M11.0039 42.5762L4.26562 40.9648L6.69727 19.3438H30.6621V26.1699H13.6406L12.5859 35.6328C13.1523 35.3008 14.0117 34.9492 15.1641 34.5781C16.3164 34.1875 17.6055 33.9922 19.0312 33.9922C21.1016 33.9922 22.9375 34.3145 24.5391 34.959C26.1406 35.6035 27.498 36.541 28.6113 37.7715C29.7441 39.002 30.6035 40.5059 31.1895 42.2832C31.7754 44.0605 32.0684 46.0723 32.0684 48.3184C32.0684 50.2129 31.7754 52.0195 31.1895 53.7383C30.6035 55.4375 29.7148 56.9609 28.5234 58.3086C27.332 59.6367 25.8379 60.6816 24.041 61.4434C22.2441 62.2051 20.1152 62.5859 17.6543 62.5859C15.8184 62.5859 14.041 62.3125 12.3223 61.7656C10.623 61.2188 9.08984 60.4082 7.72266 59.334C6.375 58.2598 5.29102 56.9609 4.4707 55.4375C3.66992 53.8945 3.25 52.1367 3.21094 50.1641H11.5898C11.707 51.375 12.0195 52.4199 12.5273 53.2988C13.0547 54.1582 13.748 54.8223 14.6074 55.291C15.4668 55.7598 16.4727 55.9941 17.625 55.9941C18.6992 55.9941 19.6172 55.7891 20.3789 55.3789C21.1406 54.9688 21.7559 54.4023 22.2246 53.6797C22.6934 52.9375 23.0352 52.0781 23.25 51.1016C23.4844 50.1055 23.6016 49.0312 23.6016 47.8789C23.6016 46.7266 23.4648 45.6816 23.1914 44.7441C22.918 43.8066 22.498 42.9961 21.9316 42.3125C21.3652 41.6289 20.6426 41.1016 19.7637 40.7305C18.9043 40.3594 17.8984 40.1738 16.7461 40.1738C15.1836 40.1738 13.9727 40.418 13.1133 40.9062C12.2734 41.3945 11.5703 41.9512 11.0039 42.5762ZM112.225 46.0625V52.6836H81.4922L81.082 47.5566L98.8652 19.3438H105.574L98.3086 31.502L89.4609 46.0625H112.225ZM107.391 19.3438V62H98.9531V19.3438H107.391Z" fill="#5F38F9"/>
<path d="M57.5019 59.9C52.6619 59.9 48.9219 58.12 46.2819 54.56C43.6419 50.96 42.3219 45.78 42.3219 39.02C42.3219 32.26 43.6419 27.1 46.2819 23.54C48.9219 19.98 52.6619 18.2 57.5019 18.2C62.3419 18.2 66.0819 20 68.7219 23.6C71.3619 27.16 72.6819 32.32 72.6819 39.08C72.6819 45.84 71.3619 51 68.7219 54.56C66.0819 58.12 62.3419 59.9 57.5019 59.9ZM57.5019 52.34C59.5819 52.34 61.2019 51.2 62.3619 48.92C63.5219 46.6 64.1019 43.34 64.1019 39.14C64.1019 34.94 63.5219 31.66 62.3619 29.3C61.2019 26.9 59.5819 25.7 57.5019 25.7C55.4219 25.7 53.8019 26.86 52.6419 29.18C51.4819 31.46 50.9019 34.7 50.9019 38.9C50.9019 43.1 51.4819 46.4 52.6419 48.8C53.8019 51.16 55.4219 52.34 57.5019 52.34Z" fill="#5F38F9" fill-opacity="0.2"/>
<path d="M46.2819 54.56L45.8182 54.9L45.82 54.9025L46.2819 54.56ZM46.2819 23.54L46.7437 23.8825L46.2819 23.54ZM68.7219 23.6L68.2582 23.94L68.26 23.9425L68.7219 23.6ZM62.3619 48.92L62.8744 49.1807L62.8762 49.1771L62.3619 48.92ZM62.3619 29.3L61.8442 29.5502L61.8458 29.5536L62.3619 29.3ZM52.6419 29.18L53.1544 29.4407L53.1562 29.4371L52.6419 29.18ZM52.6419 48.8L52.1242 49.0502L52.1258 49.0536L52.6419 48.8ZM57.5019 59.325C57.147 59.325 56.7988 59.3151 56.4572 59.2955L56.3912 60.4436C56.7555 60.4646 57.1257 60.475 57.5019 60.475V59.325ZM54.3954 59.0433C53.7005 58.9096 53.0373 58.7284 52.4052 58.5005L52.015 59.5823C52.7059 59.8315 53.4271 60.0281 54.1781 60.1726L54.3954 59.0433ZM50.5404 57.6416C49.9475 57.303 49.3861 56.9129 48.856 56.471L48.1196 57.3544C48.7011 57.8391 49.318 58.2678 49.97 58.6402L50.5404 57.6416ZM47.3903 55.0259C47.168 54.7684 46.9525 54.499 46.7437 54.2175L45.82 54.9025C46.0452 55.2062 46.2785 55.4978 46.5198 55.7774L47.3903 55.0259ZM46.7456 54.22C46.5543 53.9591 46.37 53.6894 46.1927 53.4107L45.2224 54.0278C45.413 54.3276 45.6116 54.6183 45.8182 54.9L46.7456 54.22ZM45.2413 51.6886C44.9651 51.1109 44.7128 50.5022 44.4847 49.8624L43.4015 50.2486C43.6422 50.9237 43.9095 51.5692 44.2038 52.1846L45.2413 51.6886ZM43.9026 47.963C43.7399 47.3386 43.5967 46.6894 43.4732 46.0151L42.342 46.2222C42.4703 46.9227 42.6195 47.5997 42.7897 48.2529L43.9026 47.963ZM43.176 44.036C43.0988 43.3895 43.0376 42.7231 42.9924 42.0365L41.8449 42.1121C41.8914 42.8178 41.9544 43.5046 42.0341 44.1723L43.176 44.036ZM42.907 40.0281C42.9003 39.6962 42.8969 39.3602 42.8969 39.02H41.7469C41.7469 39.3678 41.7503 39.7117 41.7573 40.0515L42.907 40.0281ZM42.8969 39.02C42.8969 38.6809 42.9002 38.346 42.9069 38.0153L41.7572 37.992C41.7503 38.3306 41.7469 38.6733 41.7469 39.02H42.8969ZM42.9918 36.0136C43.0368 35.3292 43.0977 34.665 43.1745 34.021L42.0326 33.8849C41.9533 34.5502 41.8905 35.2346 41.8443 35.9382L42.9918 36.0136ZM43.4705 32.0488C43.5936 31.3766 43.7363 30.7297 43.8985 30.1079L42.7858 29.8176C42.616 30.4684 42.4672 31.1432 42.3393 31.8417L43.4705 32.0488ZM44.4798 28.2158C44.7079 27.5782 44.9602 26.9723 45.2365 26.3978L44.2001 25.8994C43.9055 26.5121 43.6379 27.1552 43.397 27.8284L44.4798 28.2158ZM46.1894 24.6858C46.3671 24.4089 46.5519 24.1412 46.7437 23.8825L45.82 23.1975C45.6125 23.4773 45.413 23.7664 45.2216 24.0646L46.1894 24.6858ZM46.7437 23.8825C46.9525 23.601 47.168 23.3316 47.3903 23.0741L46.5198 22.3226C46.2785 22.6022 46.0452 22.8938 45.82 23.1975L46.7437 23.8825ZM48.856 21.629C49.3861 21.1871 49.9475 20.797 50.5404 20.4584L49.97 19.4598C49.318 19.8322 48.7011 20.2609 48.1196 20.7456L48.856 21.629ZM52.4052 19.5995C53.0373 19.3716 53.7005 19.1904 54.3954 19.0567L54.1781 17.9274C53.4271 18.0719 52.7059 18.2685 52.015 18.5177L52.4052 19.5995ZM56.4572 18.8045C56.7988 18.7849 57.147 18.775 57.5019 18.775V17.625C57.1257 17.625 56.7555 17.6354 56.3912 17.6564L56.4572 18.8045ZM57.5019 18.775C57.8575 18.775 58.2065 18.785 58.5489 18.805L58.6158 17.6569C58.2505 17.6356 57.8791 17.625 57.5019 17.625V18.775ZM60.6147 19.0612C61.3105 19.197 61.9745 19.3809 62.6073 19.6124L63.0023 18.5324C62.3102 18.2792 61.5875 18.0794 60.835 17.9325L60.6147 19.0612ZM64.4719 20.4831C65.0636 20.8257 65.624 21.2203 66.1534 21.6673L66.8953 20.7886C66.3149 20.2985 65.6991 19.8648 65.0481 19.4879L64.4719 20.4831ZM67.6142 23.1256C67.8356 23.385 68.0503 23.6565 68.2582 23.94L69.1856 23.26C68.9614 22.9543 68.7293 22.6607 68.4891 22.3792L67.6142 23.1256ZM68.26 23.9425C68.4518 24.2012 68.6366 24.4689 68.8143 24.7458L69.7821 24.1246C69.5907 23.8264 69.3913 23.5373 69.1837 23.2575L68.26 23.9425ZM69.7673 26.4578C70.0435 27.0323 70.2958 27.6382 70.5239 28.2758L71.6067 27.8884C71.3659 27.2152 71.0983 26.5721 70.8037 25.9594L69.7673 26.4578ZM71.1052 30.1679C71.2674 30.7897 71.4102 31.4366 71.5333 32.1088L72.6645 31.9017C72.5366 31.2032 72.3878 30.5284 72.218 29.8776L71.1052 30.1679ZM71.8293 34.081C71.906 34.725 71.9669 35.3892 72.0119 36.0736L73.1594 35.9982C73.1132 35.2946 73.0505 34.6102 72.9712 33.9449L71.8293 34.081ZM72.0968 38.0753C72.1035 38.406 72.1069 38.7409 72.1069 39.08H73.2569C73.2569 38.7333 73.2534 38.3906 73.2466 38.052L72.0968 38.0753ZM72.1069 39.08C72.1069 39.4191 72.1035 39.754 72.0968 40.0847L73.2466 40.108C73.2534 39.7694 73.2569 39.4267 73.2569 39.08H72.1069ZM72.0119 42.0864C71.9669 42.7708 71.906 43.435 71.8293 44.079L72.9712 44.2151C73.0505 43.5498 73.1132 42.8654 73.1594 42.1618L72.0119 42.0864ZM71.5333 46.0512C71.4102 46.7234 71.2674 47.3703 71.1052 47.9921L72.218 48.2824C72.3878 47.6316 72.5366 46.9568 72.6645 46.2583L71.5333 46.0512ZM70.5239 49.8842C70.2958 50.5218 70.0435 51.1277 69.7673 51.7022L70.8037 52.2006C71.0983 51.5879 71.3659 50.9448 71.6067 50.2716L70.5239 49.8842ZM68.8143 53.4142C68.6366 53.6911 68.4518 53.9588 68.26 54.2175L69.1837 54.9025C69.3913 54.6227 69.5907 54.3336 69.7821 54.0354L68.8143 53.4142ZM68.26 54.2175C68.0513 54.499 67.8358 54.7684 67.6135 55.0259L68.4839 55.7774C68.7253 55.4978 68.9585 55.2062 69.1837 54.9025L68.26 54.2175ZM66.1478 56.471C65.6176 56.9129 65.0562 57.303 64.4634 57.6416L65.0337 58.6402C65.6857 58.2678 66.3026 57.8391 66.8841 57.3544L66.1478 56.471ZM62.5986 58.5005C61.9665 58.7284 61.3032 58.9096 60.6083 59.0433L60.8257 60.1726C61.5766 60.0281 62.2978 59.8315 62.9887 59.5823L62.5986 58.5005ZM58.5465 59.2955C58.2049 59.3151 57.8567 59.325 57.5019 59.325V60.475C57.878 60.475 58.2483 60.4646 58.6126 60.4436L58.5465 59.2955ZM57.5019 51.765C57.258 51.765 57.0235 51.7469 56.7979 51.7113L56.6188 52.8473C56.9064 52.8926 57.2009 52.915 57.5019 52.915V51.765ZM55.4895 51.2619C55.1006 51.0453 54.7325 50.7551 54.386 50.3855L53.547 51.172C53.9668 51.6199 54.4275 51.9867 54.93 52.2666L55.4895 51.2619ZM53.5148 49.2073C53.3919 49.0005 53.2729 48.7802 53.1579 48.5464L52.1258 49.0536C52.2533 49.313 52.3867 49.5601 52.5263 49.7949L53.5148 49.2073ZM53.1596 48.5498C53.0457 48.3142 52.9374 48.0688 52.8346 47.8134L51.7677 48.2426C51.8797 48.521 51.9985 48.7903 52.1242 49.0502L53.1596 48.5498ZM52.3171 46.2742C52.1772 45.7712 52.0543 45.2388 51.9489 44.6769L50.8186 44.889C50.9296 45.4805 51.0597 46.0451 51.2092 46.5824L52.3171 46.2742ZM51.7017 43.0462C51.639 42.5174 51.5893 41.9672 51.5528 41.3954L50.4051 41.4687C50.4429 42.0598 50.4944 42.6308 50.5597 43.1816L51.7017 43.0462ZM51.4848 39.7336C51.4795 39.46 51.4769 39.1821 51.4769 38.9H50.3269C50.3269 39.1893 50.3296 39.4746 50.335 39.7558L51.4848 39.7336ZM51.4769 38.9C51.4769 38.4804 51.4827 38.0709 51.4944 37.6715L50.3449 37.6378C50.3329 38.049 50.3269 38.4697 50.3269 38.9H51.4769ZM51.6512 35.2294C51.7401 34.3692 51.8625 33.569 52.018 32.8283L50.8925 32.5921C50.7279 33.3766 50.5997 34.2165 50.5073 35.1112L51.6512 35.2294ZM52.6782 30.523C52.8244 30.1377 52.9832 29.7771 53.1544 29.4407L52.1294 28.9193C51.9381 29.2953 51.7627 29.6941 51.603 30.1151L52.6782 30.523ZM53.1562 29.4371C53.2718 29.206 53.3915 28.9884 53.5151 28.7841L52.5314 28.1885C52.3906 28.421 52.2561 28.6659 52.1276 28.9229L53.1562 29.4371ZM54.3903 27.6236C54.7369 27.2616 55.1055 26.9773 55.4954 26.7652L54.9458 25.755C54.4426 26.0288 53.9808 26.3884 53.5596 26.8283L54.3903 27.6236ZM56.8009 26.3272C57.0256 26.2926 57.2591 26.275 57.5019 26.275V25.125C57.2034 25.125 56.9112 25.1467 56.6259 25.1906L56.8009 26.3272ZM57.5019 26.275C57.7468 26.275 57.9823 26.2936 58.2088 26.3302L58.3921 25.1949C58.1022 25.1481 57.8053 25.125 57.5019 25.125V26.275ZM59.5201 26.7912C59.9081 27.0124 60.2757 27.3084 60.622 27.6856L61.4691 26.9079C61.0507 26.4521 60.5912 26.0781 60.0896 25.7921L59.5201 26.7912ZM61.4893 28.8814C61.6115 29.0908 61.7299 29.3137 61.8442 29.5502L62.8796 29.0498C62.7531 28.7882 62.6208 28.5387 62.4825 28.3017L61.4893 28.8814ZM61.8458 29.5536C61.9602 29.7864 62.0691 30.0293 62.1723 30.2827L63.2373 29.8488C63.1244 29.5718 63.0047 29.3043 62.8779 29.0464L61.8458 29.5536ZM62.6907 31.8099C62.8303 32.3086 62.9529 32.8374 63.0581 33.3966L64.1882 33.184C64.0774 32.5949 63.9475 32.0334 63.7981 31.4998L62.6907 31.8099ZM63.304 35.0176C63.3662 35.5428 63.4155 36.0899 63.4517 36.6588L64.5994 36.5857C64.5619 35.9975 64.5108 35.4296 64.446 34.8823L63.304 35.0176ZM63.519 38.3112C63.5243 38.5831 63.5269 38.8594 63.5269 39.14H64.6769C64.6769 38.8522 64.6742 38.5686 64.6688 38.289L63.519 38.3112ZM63.5269 39.14C63.5269 39.4191 63.5243 39.6938 63.5191 39.9641L64.6689 39.9861C64.6742 39.7082 64.6769 39.4262 64.6769 39.14H63.5269ZM63.4525 41.607C63.4165 42.1731 63.3676 42.7169 63.3059 43.2386L64.4479 43.3738C64.5123 42.8299 64.563 42.2653 64.6001 41.6799L63.4525 41.607ZM63.0613 44.8499C62.9564 45.4063 62.8341 45.9317 62.6947 46.4262L63.8016 46.7381C63.951 46.2082 64.0808 45.6496 64.1914 45.0629L63.0613 44.8499ZM62.1756 47.9412C62.0719 48.1925 61.9625 48.433 61.8476 48.6628L62.8762 49.1771C63.0041 48.9213 63.1249 48.6555 63.2386 48.3799L62.1756 47.9412ZM61.8494 48.6593C61.7332 48.8877 61.6127 49.1027 61.4883 49.3044L62.4671 49.9082C62.6091 49.6779 62.7448 49.4354 62.8744 49.1807L61.8494 48.6593ZM60.6092 50.4471C60.2624 50.8015 59.8933 51.08 59.5025 51.2876L60.042 52.3032C60.5459 52.0355 61.0088 51.6831 61.4313 51.2512L60.6092 50.4471ZM58.1999 51.7142C57.9761 51.7479 57.7435 51.765 57.5019 51.765V52.915C57.798 52.915 58.0877 52.894 58.3709 52.8515L58.1999 51.7142ZM46.2819 54.56L45.3545 55.2401L45.3582 55.245L46.2819 54.56ZM46.2819 23.54L47.2056 24.225L46.2819 23.54ZM68.7219 23.6L67.7945 24.2801L67.7982 24.285L68.7219 23.6ZM62.3619 48.92L63.3869 49.4415L63.3905 49.4343L62.3619 48.92ZM62.3619 29.3L61.3265 29.8005L61.3298 29.8073L62.3619 29.3ZM52.6419 29.18L53.6669 29.7015L53.6705 29.6943L52.6419 29.18ZM52.6419 48.8L51.6065 49.3005L51.6098 49.3073L52.6419 48.8ZM57.5019 58.75C57.1577 58.75 56.8205 58.7404 56.4902 58.7214L56.3582 61.0177C56.7338 61.0393 57.1151 61.05 57.5019 61.05V58.75ZM54.5041 58.4787C53.8372 58.3503 53.2029 58.1769 52.6003 57.9596L51.8199 60.1231C52.5403 60.383 53.2905 60.5873 54.0694 60.7372L54.5041 58.4787ZM50.8256 57.1423C50.2623 56.8206 49.7286 56.4498 49.2241 56.0293L47.7515 57.7961C48.3587 58.3021 49.0033 58.7502 49.6848 59.1395L50.8256 57.1423ZM47.8255 54.6501C47.6128 54.4037 47.4061 54.1454 47.2056 53.875L45.3582 55.245C45.5916 55.5598 45.8337 55.8626 46.0846 56.1531L47.8255 54.6501ZM47.2092 53.8799C47.0256 53.6295 46.8485 53.3703 46.6779 53.1021L44.7372 54.3364C44.9345 54.6467 45.1403 54.9479 45.3545 55.2401L47.2092 53.8799ZM45.7601 51.4406C45.4929 50.8817 45.2481 50.2915 45.0263 49.6694L42.8599 50.4417C43.1069 51.1345 43.3818 51.7983 43.685 52.4326L45.7601 51.4406ZM44.459 47.818C44.3001 47.2081 44.1599 46.5727 44.0388 45.9115L41.7765 46.3258C41.9071 47.0394 42.0593 47.7302 42.2333 48.3979L44.459 47.818ZM43.7469 43.9679C43.6711 43.332 43.6107 42.6757 43.5662 41.9988L41.2711 42.1499C41.3182 42.8652 41.3822 43.5621 41.4632 44.2405L43.7469 43.9679ZM43.4819 40.0164C43.4752 39.6885 43.4719 39.3564 43.4719 39.02H41.1719C41.1719 39.3716 41.1754 39.7194 41.1824 40.0632L43.4819 40.0164ZM43.4719 39.02C43.4719 38.6847 43.4752 38.3537 43.4818 38.027L41.1823 37.9803C41.1753 38.3229 41.1719 38.6695 41.1719 39.02H43.4719ZM43.5656 36.0513C43.6099 35.3765 43.6699 34.7225 43.7454 34.089L41.4616 33.8168C41.381 34.4927 41.3174 35.1873 41.2705 35.9005L43.5656 36.0513ZM44.0361 32.1524C44.1568 31.4933 44.2965 30.8603 44.4549 30.2531L42.2294 29.6724C42.0558 30.3378 41.904 31.0264 41.7737 31.7381L44.0361 32.1524ZM45.0212 28.4094C45.2429 27.7897 45.4876 27.2024 45.7547 26.647L43.6819 25.6502C43.3781 26.282 43.1028 26.9437 42.8556 27.6348L45.0212 28.4094ZM46.6733 24.9964C46.8442 24.7302 47.0216 24.4731 47.2056 24.225L45.3582 22.855C45.1428 23.1454 44.936 23.4451 44.7377 23.754L46.6733 24.9964ZM47.2056 24.225C47.4061 23.9546 47.6128 23.6963 47.8255 23.4499L46.0846 21.9468C45.8337 22.2374 45.5916 22.5402 45.3582 22.855L47.2056 24.225ZM49.2241 22.0707C49.7286 21.6502 50.2623 21.2794 50.8256 20.9577L49.6848 18.9605C49.0033 19.3498 48.3587 19.7979 47.7515 20.3039L49.2241 22.0707ZM52.6003 20.1404C53.2029 19.9231 53.8372 19.7497 54.5041 19.6213L54.0694 17.3628C53.2905 17.5127 52.5403 17.717 51.8199 17.9769L52.6003 20.1404ZM56.4902 19.3786C56.8205 19.3596 57.1577 19.35 57.5019 19.35V17.05C57.1151 17.05 56.7338 17.0607 56.3582 17.0823L56.4902 19.3786ZM57.5019 19.35C57.8468 19.35 58.1846 19.3597 58.5154 19.379L58.6493 17.0829C58.2724 17.0609 57.8899 17.05 57.5019 17.05V19.35ZM60.5045 19.6255C61.172 19.7558 61.8067 19.9318 62.4098 20.1524L63.1999 17.9923C62.478 17.7283 61.7261 17.5206 60.9452 17.3682L60.5045 19.6255ZM64.1837 20.9807C64.7459 21.3062 65.2786 21.6812 65.7824 22.1066L67.2662 20.3493C66.6603 19.8376 66.0168 19.3844 65.3363 18.9903L64.1837 20.9807ZM67.1768 23.4988C67.3888 23.7472 67.5947 24.0076 67.7945 24.2801L69.6492 22.9199C69.417 22.6032 69.1761 22.2985 68.9265 22.006L67.1768 23.4988ZM67.7982 24.285C67.9821 24.5331 68.1596 24.7902 68.3304 25.0564L70.266 23.814C70.0677 23.5051 69.861 23.2054 69.6456 22.915L67.7982 24.285ZM69.2491 26.707C69.5162 27.2624 69.7608 27.8497 69.9825 28.4694L72.1481 27.6948C71.9009 27.0037 71.6257 26.342 71.3219 25.7102L69.2491 26.707ZM70.5488 30.3131C70.7073 30.9203 70.847 31.5533 70.9677 32.2124L73.2301 31.7981C73.0997 31.0864 72.9479 30.3978 72.7743 29.7324L70.5488 30.3131ZM71.2583 34.149C71.3338 34.7825 71.3938 35.4365 71.4382 36.1113L73.7332 35.9605C73.6863 35.2473 73.6227 34.5527 73.5421 33.8768L71.2583 34.149ZM71.5219 38.087C71.5286 38.4137 71.5319 38.7447 71.5319 39.08H73.8319C73.8319 38.7295 73.8284 38.3829 73.8214 38.0403L71.5219 38.087ZM71.5319 39.08C71.5319 39.4153 71.5286 39.7463 71.5219 40.073L73.8214 40.1197C73.8284 39.7771 73.8319 39.4305 73.8319 39.08H71.5319ZM71.4382 42.0487C71.3938 42.7235 71.3338 43.3775 71.2583 44.011L73.5421 44.2832C73.6227 43.6073 73.6863 42.9127 73.7332 42.1995L71.4382 42.0487ZM70.9677 45.9476C70.847 46.6067 70.7073 47.2397 70.5488 47.8469L72.7743 48.4276C72.9479 47.7622 73.0997 47.0736 73.2301 46.3619L70.9677 45.9476ZM69.9825 49.6906C69.7608 50.3103 69.5162 50.8976 69.2491 51.453L71.3219 52.4498C71.6257 51.818 71.9009 51.1563 72.1481 50.4652L69.9825 49.6906ZM68.3304 53.1036C68.1596 53.3698 67.9821 53.6269 67.7982 53.875L69.6456 55.245C69.861 54.9546 70.0677 54.6549 70.266 54.346L68.3304 53.1036ZM67.7982 53.875C67.5977 54.1454 67.391 54.4037 67.1782 54.6501L68.9192 56.1531C69.1701 55.8626 69.4122 55.5598 69.6456 55.245L67.7982 53.875ZM65.7796 56.0293C65.2751 56.4498 64.7415 56.8206 64.1782 57.1423L65.3189 59.1395C66.0005 58.7502 66.6451 58.3021 67.2523 57.7961L65.7796 56.0293ZM62.4035 57.9596C61.8008 58.1769 61.1666 58.3503 60.4996 58.4787L60.9343 60.7372C61.7133 60.5873 62.4635 60.383 63.1838 60.1231L62.4035 57.9596ZM58.5135 58.7214C58.1833 58.7404 57.8461 58.75 57.5019 58.75V61.05C57.8887 61.05 58.2699 61.0393 58.6456 61.0177L58.5135 58.7214ZM57.5019 51.19C57.2866 51.19 57.0821 51.174 56.8875 51.1433L56.5292 53.4152C56.8478 53.4655 57.1724 53.49 57.5019 53.49V51.19ZM55.7693 50.7595C55.4371 50.5745 55.1153 50.3228 54.8056 49.9923L53.1275 51.5652C53.584 52.0522 54.0909 52.4574 54.6502 52.7689L55.7693 50.7595ZM54.0091 48.9135C53.8945 48.7206 53.7826 48.5138 53.6739 48.2927L51.6098 49.3073C51.7435 49.5793 51.8841 49.8399 52.032 50.0887L54.0091 48.9135ZM53.6773 48.2996C53.5693 48.0762 53.4662 47.8427 53.3681 47.5988L51.2343 48.4572C51.3509 48.7471 51.4749 49.0283 51.6065 49.3004L53.6773 48.2996ZM52.8711 46.12C52.7359 45.6342 52.6167 45.118 52.514 44.5708L50.2535 44.9951C50.3673 45.6014 50.501 46.1821 50.6552 46.7365L52.8711 46.12ZM52.2727 42.9784C52.2113 42.4607 52.1625 41.9209 52.1266 41.3587L49.8313 41.5054C49.8697 42.1061 49.922 42.6875 49.9887 43.2493L52.2727 42.9784ZM52.0597 39.7225C52.0545 39.4527 52.0519 39.1785 52.0519 38.9H49.7519C49.7519 39.1929 49.7546 39.4819 49.7601 39.767L52.0597 39.7225ZM52.0519 38.9C52.0519 38.4857 52.0577 38.0819 52.0692 37.6883L49.7702 37.621C49.758 38.038 49.7519 38.4644 49.7519 38.9H52.0519ZM52.2232 35.2884C52.3102 34.4455 52.4299 33.6653 52.5807 32.9464L50.3298 32.474C50.1606 33.2803 50.0296 34.1401 49.9354 35.0522L52.2232 35.2884ZM53.2158 30.7269C53.3552 30.3596 53.5058 30.018 53.6668 29.7015L51.6169 28.6585C51.4155 29.0544 51.2319 29.4723 51.0654 29.9111L53.2158 30.7269ZM53.6705 29.6943C53.7796 29.476 53.8919 29.272 54.007 29.0819L52.0395 27.8907C51.8902 28.1373 51.7482 28.3958 51.6133 28.6657L53.6705 29.6943ZM54.8056 28.0212C55.115 27.6981 55.437 27.4515 55.7702 27.2703L54.6711 25.2499C54.1111 25.5545 53.6027 25.9518 53.1443 26.4307L54.8056 28.0212ZM56.8884 26.8955C57.0828 26.8656 57.287 26.85 57.5019 26.85V24.55C57.1755 24.55 56.854 24.5737 56.5383 24.6223L56.8884 26.8955ZM57.5019 26.85C57.7176 26.85 57.9224 26.8664 58.1171 26.8978L58.4838 24.6273C58.1621 24.5753 57.8345 24.55 57.5019 24.55V26.85ZM59.2354 27.2908C59.5665 27.4795 59.8883 27.7366 60.1984 28.0744L61.8927 26.519C61.4382 26.0239 60.9328 25.6109 60.3743 25.2926L59.2354 27.2908ZM60.9927 29.1713C61.1069 29.3669 61.2182 29.5765 61.3265 29.8004L63.3973 28.7996C63.2648 28.5254 63.1255 28.2627 62.9791 28.0119L60.9927 29.1713ZM61.3298 29.8073C61.438 30.0274 61.5414 30.2581 61.6398 30.4996L63.7698 29.6318C63.6521 29.343 63.5269 29.0632 63.3939 28.7927L61.3298 29.8073ZM62.137 31.9649C62.2717 32.4462 62.3906 32.9587 62.493 33.5029L64.7533 33.0777C64.6397 32.4737 64.5061 31.8958 64.3518 31.3447L62.137 31.9649ZM62.733 35.0853C62.7939 35.5994 62.8423 36.136 62.8779 36.6954L65.1732 36.5492C65.1352 35.9513 65.0832 35.3731 65.017 34.8147L62.733 35.0853ZM62.9441 38.3222C62.9493 38.5904 62.9519 38.863 62.9519 39.14H65.2519C65.2519 38.8487 65.2492 38.5613 65.2437 38.2779L62.9441 38.3222ZM62.9519 39.14C62.9519 39.4155 62.9493 39.6865 62.9442 39.9531L65.2438 39.9971C65.2492 39.7155 65.2519 39.4297 65.2519 39.14H62.9519ZM62.8786 41.5706C62.8433 42.127 62.7953 42.6604 62.7349 43.171L65.0189 43.4414C65.0846 42.8864 65.1362 42.3113 65.174 41.7163L62.8786 41.5706ZM62.4962 44.7434C62.3942 45.2847 62.2757 45.7934 62.1413 46.2702L64.355 46.8941C64.5094 46.3464 64.643 45.7713 64.7564 45.1694L62.4962 44.7434ZM61.644 47.7219C61.5454 47.961 61.4417 48.1888 61.3333 48.4057L63.3905 49.4343C63.5249 49.1655 63.6514 48.887 63.7701 48.5992L61.644 47.7219ZM61.3369 48.3985C61.2273 48.6139 61.1146 48.8151 60.9989 49.0025L62.9564 50.2101C63.1073 49.9656 63.2506 49.7092 63.3868 49.4415L61.3369 48.3985ZM60.1982 50.045C59.8892 50.3608 59.5671 50.6022 59.2328 50.7798L60.3117 52.811C60.8722 52.5133 61.382 52.1239 61.8423 51.6533L60.1982 50.045ZM58.1145 51.1456C57.9203 51.1748 57.7163 51.19 57.5019 51.19V53.49C57.8252 53.49 58.1436 53.4671 58.4563 53.4201L58.1145 51.1456Z" fill="#5F38F9"/>
</svg>
