<svg width="321" height="261" viewBox="0 0 321 261" fill="none" xmlns="http://www.w3.org/2000/svg">
<circle cx="218.079" cy="93.9304" r="93.4304" stroke="#E0DAFF" stroke-dasharray="6 6"/>
<circle cx="59.4054" cy="176.186" r="55.7521" stroke="#E0DAFF" stroke-dasharray="6 6"/>
<path d="M0.5 140.776L5.27612 137.061" stroke="#A2A1FF"/>
<path d="M0.5 136.53L4.74544 141.306" stroke="#A2A1FF"/>
<path d="M249.563 208.783L247.545 201.221" stroke="#A2A1FF"/>
<path d="M244.686 206.056L252.082 203.496" stroke="#A2A1FF"/>
<path d="M315.724 67.8075L320.5 64.0928" stroke="#A2A1FF"/>
<path d="M315.724 63.5615L319.969 68.3376" stroke="#A2A1FF"/>
<path d="M219.376 200.597L231.317 210.945V56.5173L188.332 13.5322H83.7877V210.945L96.2586 200.597L108.199 210.945L121.466 200.597L132.876 210.945L146.143 200.597L158.348 210.945L170.554 200.597L182.759 210.945L196.026 200.597L207.436 210.945L219.376 200.597Z" fill="#EBE8F9"/>
<path d="M230.622 55.8704H188.168V13.416L230.622 55.8704Z" fill="#E0DAFF"/>
<rect x="21.6966" y="157.05" width="4.47945" height="4.47945" rx="2.23973" stroke="#A2A1FF"/>
<rect x="282.791" y="101.86" width="4.47945" height="4.47945" rx="2.23973" stroke="#A2A1FF"/>
<rect x="255.196" y="209.588" width="4.47945" height="4.47945" rx="2.23973" stroke="#A2A1FF"/>
<rect x="30.7182" y="241.959" width="4.47945" height="4.47945" rx="2.23973" stroke="#A2A1FF"/>
<rect x="276.423" y="2.62305" width="4.47945" height="4.47945" rx="2.23973" stroke="#A2A1FF"/>
<path d="M117.25 224.822L124.384 217.578L157.341 250.04C159.341 252.01 159.366 255.229 157.395 257.229C155.425 259.229 152.206 259.254 150.206 257.283L117.25 224.822Z" fill="#CBC5EA"/>
<path d="M117.25 224.822L124.384 217.578L133.062 226.125L125.927 233.369L117.25 224.822Z" fill="#B9B3D8"/>
<circle cx="99.4719" cy="199.27" r="26.5755" stroke="#CBC5EA" stroke-width="10"/>
<path d="M110.081 185.21C107.346 183.286 104.131 182.158 100.793 181.952C97.4559 181.745 94.1265 182.469 91.1753 184.041C88.2241 185.613 85.7668 187.973 84.0764 190.859" stroke="#CBC7DE" stroke-width="2"/>
<path d="M131.782 116.096V120.784H106.148L105.952 117.244L121.284 93.2202H125.996L120.894 101.96L112.08 116.096H131.782ZM127.339 93.2202V128.767H121.455V93.2202H127.339Z" fill="#6500F2"/>
<path d="M208.495 116.096V120.784H182.86L182.665 117.244L197.997 93.2202H202.709L197.606 101.96L188.793 116.096H208.495ZM204.051 93.2202V128.767H198.168V93.2202H204.051Z" fill="#6500F2"/>
<circle cx="158.553" cy="111.595" r="16.8746" fill="#6366F1" fill-opacity="0.1" stroke="#6500F2" stroke-width="4"/>
<path d="M153.709 104.197C155.175 103.882 156.618 104.849 156.223 104.246C155.902 103.758 154.743 102.884 153.154 103.425C151.303 104.053 151.126 105.344 151.147 105.629C151.205 106.406 151.522 104.666 153.709 104.197Z" fill="#4B5563"/>
<path d="M165.299 104.564C167.643 105.034 167.983 106.775 168.044 105.996C168.066 105.711 167.875 104.42 165.894 103.792C164.192 103.252 162.95 104.127 162.606 104.614C162.182 105.217 163.729 104.249 165.299 104.564Z" fill="#4B5563"/>
<path d="M164.004 105.091C161.776 105.091 159.963 106.904 159.963 109.133C159.963 111.361 161.776 113.174 164.004 113.174C166.233 113.174 168.046 111.361 168.046 109.133C168.046 106.904 166.233 105.091 164.004 105.091ZM162.536 105.997C162.768 106.177 162.918 106.459 162.918 106.777C162.918 107.321 162.476 107.763 161.932 107.763C161.569 107.763 161.255 107.568 161.082 107.278C161.433 106.725 161.938 106.278 162.536 105.997ZM164.004 112.596C162.096 112.596 160.541 111.043 160.541 109.133C160.541 108.515 160.705 107.936 160.988 107.434C160.96 107.57 160.943 107.709 160.943 107.853C160.943 108.992 161.867 109.916 163.006 109.916C164.145 109.916 165.069 108.992 165.069 107.853C165.069 106.744 164.193 105.84 163.096 105.792C163.385 105.712 163.688 105.671 164.003 105.671C165.913 105.671 167.466 107.224 167.466 109.134C167.468 111.043 165.913 112.596 164.004 112.596Z" fill="#4B5563"/>
<path d="M158.126 109.133C158.126 106.904 156.314 105.091 154.085 105.091C151.857 105.091 150.044 106.904 150.044 109.133C150.044 111.361 151.857 113.174 154.085 113.174C156.314 113.174 158.126 111.363 158.126 109.133ZM152.403 106.108C152.686 106.282 152.877 106.593 152.877 106.949C152.877 107.494 152.435 107.936 151.89 107.936C151.536 107.936 151.224 107.747 151.051 107.465C151.364 106.898 151.835 106.424 152.403 106.108ZM154.085 112.596C152.176 112.596 150.622 111.043 150.622 109.133C150.622 108.629 150.731 108.149 150.925 107.717C150.91 107.816 150.902 107.919 150.902 108.023C150.902 109.162 151.825 110.086 152.964 110.086C154.103 110.086 155.027 109.162 155.027 108.023C155.027 106.884 154.103 105.96 152.964 105.96C152.854 105.96 152.746 105.969 152.64 105.987C153.08 105.783 153.569 105.669 154.085 105.669C155.994 105.669 157.549 107.222 157.549 109.133C157.549 111.043 155.994 112.596 154.085 112.596Z" fill="#4B5563"/>
<path d="M157.695 115.58C154.988 116.303 154.264 118.478 154.492 118.649C154.838 118.907 155.54 117.683 157.933 117.03C160.837 116.236 162.155 117.068 162.168 116.681C162.179 116.4 160.514 114.826 157.695 115.58Z" fill="#4B5563"/>
</svg>
